# xmcd
#
# Track frame offsets: 
#        150
#        10446
#        25967
#        41659
#        56489
#        69085
#        85037
#        96152
#        108922
#        117990
#
# Disc length: 1725 seconds
#
# Revision: 0
# Processed by: cddbd v1.5.1PL2 Copyright (c) Steve Scherf et al.
# Submitted via: ExactAudioCopy v0.95a5
#
DISCID=7706bb0a
DTITLE=George Strait - If You Ain't Lovin' You Ain't Livin'
DYEAR=2000
DGENRE=Country
TTITLE0=If You Ain't Lovin' (You Ain't Livin')
TTITLE1=Under These Conditions
TTITLE2=Baby Blue
TTITLE3=Don't Mind If I Do
TTITLE4=Bigger Man Than Me
TTITLE5=Famous Last Words Of A Fool
TTITLE6=It's Too Late Now
TTITLE7=Is It That Time Again
TTITLE8=Let's Get Down To It
TTITLE9=Back To Bein' Me
EXTD=
EXTT0=
EXTT1=
EXTT2=
EXTT3=
EXTT4=
EXTT5=
EXTT6=
EXTT7=
EXTT8=
EXTT9=
PLAYORDER=
